<svg width="16" height="16" viewBox="0 0 16 16" fill="none" xmlns="http://www.w3.org/2000/svg">
<g clip-path="url(#clip0_1_1952)">
<path fill-rule="evenodd" clip-rule="evenodd" d="M3.21995 8.257C3.22005 7.28108 3.50173 6.32591 4.03122 5.5061C4.5607 4.6863 5.31549 4.03669 6.20501 3.63522C7.09453 3.23375 8.081 3.09748 9.04606 3.24275C10.0111 3.38802 10.9137 3.80866 11.6457 4.45421C12.3776 5.09976 12.9077 5.94278 13.1723 6.88213C13.437 7.82148 13.425 8.81725 13.1378 9.74995C12.8506 10.6827 12.3003 11.5127 11.5531 12.1404C10.8059 12.7681 9.89335 13.1669 8.92508 13.2889V9.52481H10.1929C10.361 9.52481 10.5222 9.45802 10.6411 9.33914C10.76 9.22026 10.8268 9.05902 10.8268 8.8909C10.8268 8.72278 10.76 8.56155 10.6411 8.44267C10.5222 8.32379 10.361 8.257 10.1929 8.257H8.92508V6.98919C8.92508 6.82107 8.99187 6.65984 9.11075 6.54096C9.22963 6.42208 9.39086 6.35529 9.55899 6.35529H9.87594C10.0441 6.35529 10.2053 6.2885 10.3242 6.16962C10.4431 6.05075 10.5098 5.88951 10.5098 5.72139C10.5098 5.55327 10.4431 5.39203 10.3242 5.27315C10.2053 5.15427 10.0441 5.08748 9.87594 5.08748H9.55899C9.05462 5.08748 8.57091 5.28784 8.21427 5.64448C7.85763 6.00112 7.65728 6.48483 7.65728 6.98919V8.257H6.38947C6.22135 8.257 6.06011 8.32379 5.94123 8.44267C5.82235 8.56155 5.75557 8.72278 5.75557 8.8909C5.75557 9.05902 5.82235 9.22026 5.94123 9.33914C6.06011 9.45802 6.22135 9.52481 6.38947 9.52481H7.65728V13.2889C6.43175 13.1344 5.30475 12.5379 4.48776 11.6115C3.67078 10.685 3.21998 9.49223 3.21995 8.257ZM8.29118 14.596C11.7922 14.596 14.6302 11.758 14.6302 8.257C14.6302 4.75595 11.7922 1.91797 8.29118 1.91797C4.79013 1.91797 1.95215 4.75595 1.95215 8.257C1.95215 11.758 4.79013 14.596 8.29118 14.596Z" fill="white"/>
</g>
<defs>
<clipPath id="clip0_1_1952">
<rect width="15.2137" height="15.2137" fill="white" transform="translate(0.683594 0.649536)"/>
</clipPath>
</defs>
</svg>
