<svg width="16" height="16" viewBox="0 0 16 16" fill="none" xmlns="http://www.w3.org/2000/svg">
<path d="M8.30793 6.3548C7.80356 6.3548 7.31986 6.55516 6.96322 6.9118C6.60658 7.26844 6.40622 7.75215 6.40622 8.25651C6.40622 8.76088 6.60658 9.24458 6.96322 9.60122C7.31986 9.95786 7.80356 10.1582 8.30793 10.1582C8.81229 10.1582 9.296 9.95786 9.65264 9.60122C10.0093 9.24458 10.2096 8.76088 10.2096 8.25651C10.2096 7.75215 10.0093 7.26844 9.65264 6.9118C9.296 6.55516 8.81229 6.3548 8.30793 6.3548ZM8.30793 5.087C9.14854 5.087 9.95471 5.42093 10.5491 6.01533C11.1435 6.60973 11.4774 7.4159 11.4774 8.25651C11.4774 9.09712 11.1435 9.9033 10.5491 10.4977C9.95471 11.0921 9.14854 11.426 8.30793 11.426C7.46732 11.426 6.66114 11.0921 6.06674 10.4977C5.47234 9.9033 5.13841 9.09712 5.13841 8.25651C5.13841 7.4159 5.47234 6.60973 6.06674 6.01533C6.66114 5.42093 7.46732 5.087 8.30793 5.087ZM12.4283 4.92852C12.4283 5.13867 12.3448 5.34022 12.1962 5.48882C12.0476 5.63742 11.8461 5.7209 11.6359 5.7209C11.4258 5.7209 11.2242 5.63742 11.0756 5.48882C10.927 5.34022 10.8435 5.13867 10.8435 4.92852C10.8435 4.71837 10.927 4.51682 11.0756 4.36822C11.2242 4.21962 11.4258 4.13614 11.6359 4.13614C11.8461 4.13614 12.0476 4.21962 12.1962 4.36822C12.3448 4.51682 12.4283 4.71837 12.4283 4.92852ZM8.30793 3.18529C6.73965 3.18529 6.48355 3.18972 5.75393 3.22205C5.25695 3.24551 4.92352 3.31207 4.61417 3.43251C4.3553 3.52755 4.12126 3.6799 3.92956 3.87814C3.73115 4.06983 3.5786 4.30386 3.48329 4.56276C3.36285 4.87337 3.29629 5.20617 3.27347 5.70252C3.24051 6.40235 3.23607 6.64703 3.23607 8.25651C3.23607 9.82542 3.24051 10.0809 3.27283 10.8105C3.29629 11.3069 3.36285 11.6409 3.48266 11.9496C3.59042 12.2254 3.7172 12.4238 3.92766 12.6342C4.14128 12.8472 4.33969 12.9747 4.61227 13.0799C4.92542 13.201 5.25885 13.2681 5.7533 13.291C6.45313 13.3239 6.69781 13.3277 8.30729 13.3277C9.8762 13.3277 10.1317 13.3233 10.8613 13.291C11.357 13.2675 11.6904 13.201 12.0004 13.0811C12.2591 12.9856 12.493 12.8334 12.685 12.6355C12.8987 12.4225 13.0261 12.2241 13.1313 11.9509C13.2517 11.639 13.3189 11.3056 13.3418 10.8099C13.3747 10.1107 13.3785 9.86536 13.3785 8.25651C13.3785 6.68824 13.3741 6.43214 13.3418 5.70252C13.3183 5.2068 13.2511 4.8721 13.1313 4.56276C13.0357 4.30414 12.8835 4.0702 12.6857 3.87814C12.4941 3.67963 12.26 3.52707 12.001 3.43187C11.6904 3.31143 11.357 3.24487 10.8613 3.22205C10.1621 3.18909 9.91741 3.18529 8.30729 3.18529M8.30729 1.91748C10.0296 1.91748 10.2445 1.92382 10.9209 1.95551C11.5953 1.98721 12.0556 2.09307 12.4594 2.25028C12.8777 2.41129 13.2302 2.62935 13.5826 2.98117C13.905 3.29806 14.1544 3.68137 14.3135 4.10445C14.4701 4.50824 14.5766 4.96846 14.6083 5.64356C14.6381 6.3193 14.6463 6.5342 14.6463 8.25651C14.6463 9.97883 14.64 10.1937 14.6083 10.8695C14.5766 11.5446 14.4701 12.0041 14.3135 12.4086C14.1548 12.8319 13.9054 13.2153 13.5826 13.5319C13.2657 13.8541 12.8824 14.1035 12.4594 14.2627C12.0556 14.4193 11.5953 14.5258 10.9209 14.5575C10.2445 14.5873 10.0296 14.5955 8.30729 14.5955C6.58498 14.5955 6.37009 14.5892 5.69371 14.5575C5.01924 14.5258 4.55966 14.4193 4.15523 14.2627C3.73199 14.1039 3.3486 13.8545 3.03195 13.5319C2.70957 13.215 2.46015 12.8317 2.30106 12.4086C2.14385 12.0048 2.03799 11.5446 2.0063 10.8695C1.97587 10.1937 1.96826 9.97883 1.96826 8.25651C1.96826 6.5342 1.9746 6.3193 2.0063 5.64356C2.03799 4.96846 2.14385 4.50888 2.30106 4.10445C2.45969 3.68111 2.70917 3.29769 3.03195 2.98117C3.34869 2.65866 3.73205 2.40922 4.15523 2.25028C4.55902 2.09307 5.0186 1.98721 5.69371 1.95551C6.37072 1.92572 6.58561 1.91748 8.30793 1.91748" fill="white"/>
</svg>
